<svg width="48" height="48" viewBox="0 0 48 48" fill="none" xmlns="http://www.w3.org/2000/svg">
<g clip-path="url(#clip0_154_2)">
<rect width="48" height="48" rx="24" fill="url(#paint0_radial_154_2)"/>
<g clip-path="url(#paint1_diamond_154_2_clip_path)" data-figma-skip-parse="true"><g transform="matrix(4.44949e-10 0.0125 -0.0199852 7.1139e-10 24.0001 25.5)"><rect x="0" y="0" width="1061.11" height="694.732" fill="url(#paint1_diamond_154_2)" opacity="1" shape-rendering="crispEdges"/><rect x="0" y="0" width="1061.11" height="694.732" transform="scale(1 -1)" fill="url(#paint1_diamond_154_2)" opacity="1" shape-rendering="crispEdges"/><rect x="0" y="0" width="1061.11" height="694.732" transform="scale(-1 1)" fill="url(#paint1_diamond_154_2)" opacity="1" shape-rendering="crispEdges"/><rect x="0" y="0" width="1061.11" height="694.732" transform="scale(-1)" fill="url(#paint1_diamond_154_2)" opacity="1" shape-rendering="crispEdges"/></g></g><path d="M24.0001 37.7639L11.1157 31.3218L24.0001 25.1005L36.8844 31.3218L24.0001 37.7639Z" data-figma-gradient-fill="{&#34;type&#34;:&#34;GRADIENT_DIAMOND&#34;,&#34;stops&#34;:[{&#34;color&#34;:{&#34;r&#34;:0.0,&#34;g&#34;:0.0,&#34;b&#34;:0.0,&#34;a&#34;:0.0},&#34;position&#34;:0.0},{&#34;color&#34;:{&#34;r&#34;:1.0,&#34;g&#34;:1.0,&#34;b&#34;:1.0,&#34;a&#34;:0.31999999284744263},&#34;position&#34;:1.0}],&#34;stopsVar&#34;:[{&#34;color&#34;:{&#34;r&#34;:0.0,&#34;g&#34;:0.0,&#34;b&#34;:0.0,&#34;a&#34;:0.0},&#34;position&#34;:0.0},{&#34;color&#34;:{&#34;r&#34;:1.0,&#34;g&#34;:1.0,&#34;b&#34;:1.0,&#34;a&#34;:0.31999999284744263},&#34;position&#34;:1.0}],&#34;transform&#34;:{&#34;m00&#34;:8.8989702362596290e-07,&#34;m01&#34;:-39.970344543457031,&#34;m02&#34;:43.985233306884766,&#34;m10&#34;:24.999998092651367,&#34;m11&#34;:1.4227795190890902e-06,&#34;m12&#34;:12.999992370605469},&#34;opacity&#34;:1.0,&#34;blendMode&#34;:&#34;NORMAL&#34;,&#34;visible&#34;:true}"/>
<path d="M38 17.2361V29.6395L25 23.3624V10.7361L38 17.2361Z" fill="url(#paint2_linear_154_2)"/>
<g clip-path="url(#paint3_diamond_154_2_clip_path)" data-figma-skip-parse="true"><g transform="matrix(-0.014 -0.0065 0.00713114 -0.0153594 23 23.5)"><rect x="0" y="0" width="1198.18" height="762.079" fill="url(#paint3_diamond_154_2)" opacity="1" shape-rendering="crispEdges"/><rect x="0" y="0" width="1198.18" height="762.079" transform="scale(1 -1)" fill="url(#paint3_diamond_154_2)" opacity="1" shape-rendering="crispEdges"/><rect x="0" y="0" width="1198.18" height="762.079" transform="scale(-1 1)" fill="url(#paint3_diamond_154_2)" opacity="1" shape-rendering="crispEdges"/><rect x="0" y="0" width="1198.18" height="762.079" transform="scale(-1)" fill="url(#paint3_diamond_154_2)" opacity="1" shape-rendering="crispEdges"/></g></g><path d="M10 17.2361L23 10.7361V23.3624L10 29.6395V17.2361Z" data-figma-gradient-fill="{&#34;type&#34;:&#34;GRADIENT_DIAMOND&#34;,&#34;stops&#34;:[{&#34;color&#34;:{&#34;r&#34;:0.0,&#34;g&#34;:0.0,&#34;b&#34;:0.0,&#34;a&#34;:0.0},&#34;position&#34;:0.0},{&#34;color&#34;:{&#34;r&#34;:1.0,&#34;g&#34;:1.0,&#34;b&#34;:1.0,&#34;a&#34;:0.31999999284744263},&#34;position&#34;:1.0}],&#34;stopsVar&#34;:[{&#34;color&#34;:{&#34;r&#34;:0.0,&#34;g&#34;:0.0,&#34;b&#34;:0.0,&#34;a&#34;:0.0},&#34;position&#34;:0.0},{&#34;color&#34;:{&#34;r&#34;:1.0,&#34;g&#34;:1.0,&#34;b&#34;:1.0,&#34;a&#34;:0.31999999284744263},&#34;position&#34;:1.0}],&#34;transform&#34;:{&#34;m00&#34;:-28.0,&#34;m01&#34;:14.262280464172363,&#34;m02&#34;:29.868860244750977,&#34;m10&#34;:-12.999998092651367,&#34;m11&#34;:-30.718759536743164,&#34;m12&#34;:45.359394073486328},&#34;opacity&#34;:1.0,&#34;blendMode&#34;:&#34;NORMAL&#34;,&#34;visible&#34;:true}"/>
<path fill-rule="evenodd" clip-rule="evenodd" d="M25 8.5V39H23V8.5H25Z" fill="url(#paint4_linear_154_2)"/>
<path fill-rule="evenodd" clip-rule="evenodd" d="M39.3352 30.2843L9.53419 15.8947L8.66455 17.6957L38.4656 32.0853L39.3352 30.2843Z" fill="url(#paint5_linear_154_2)"/>
<path fill-rule="evenodd" clip-rule="evenodd" d="M39.3352 17.6957L9.53419 32.0853L8.66455 30.2843L38.4656 15.8947L39.3352 17.6957Z" fill="url(#paint6_linear_154_2)"/>
<path fill-rule="evenodd" clip-rule="evenodd" d="M24 8L8 16V32L24 40L40 32V16L24 8ZM38 17.2361L24 10.2361L10 17.2361V30.7639L24 37.7639L38 30.7639V17.2361Z" fill="url(#paint7_linear_154_2)"/>
</g>
<defs>
<clipPath id="paint1_diamond_154_2_clip_path"><path d="M24.0001 37.7639L11.1157 31.3218L24.0001 25.1005L36.8844 31.3218L24.0001 37.7639Z"/></clipPath><clipPath id="paint3_diamond_154_2_clip_path"><path d="M10 17.2361L23 10.7361V23.3624L10 29.6395V17.2361Z"/></clipPath><radialGradient id="paint0_radial_154_2" cx="0" cy="0" r="1" gradientUnits="userSpaceOnUse" gradientTransform="translate(24 24) rotate(90) scale(24)">
<stop offset="0.32"/>
<stop offset="0.64" stop-color="#242424"/>
<stop offset="1"/>
</radialGradient>
<linearGradient id="paint1_diamond_154_2" x1="0" y1="0" x2="500" y2="500" gradientUnits="userSpaceOnUse">
<stop stop-opacity="0"/>
<stop offset="1" stop-color="white" stop-opacity="0.32"/>
</linearGradient>
<linearGradient id="paint2_linear_154_2" x1="38" y1="17" x2="27" y2="23" gradientUnits="userSpaceOnUse">
<stop stop-opacity="0"/>
<stop offset="1" stop-color="white" stop-opacity="0.32"/>
</linearGradient>
<linearGradient id="paint3_diamond_154_2" x1="0" y1="0" x2="500" y2="500" gradientUnits="userSpaceOnUse">
<stop stop-opacity="0"/>
<stop offset="1" stop-color="white" stop-opacity="0.32"/>
</linearGradient>
<linearGradient id="paint4_linear_154_2" x1="24" y1="8" x2="24" y2="40" gradientUnits="userSpaceOnUse">
<stop stop-color="white" stop-opacity="0.32"/>
<stop offset="0.4" stop-color="white"/>
<stop offset="0.6" stop-color="white"/>
<stop offset="1" stop-color="white" stop-opacity="0.32"/>
</linearGradient>
<linearGradient id="paint5_linear_154_2" x1="7.99988" y1="16" x2="39.9999" y2="32" gradientUnits="userSpaceOnUse">
<stop offset="0.6" stop-color="white"/>
<stop offset="1" stop-color="white" stop-opacity="0.32"/>
</linearGradient>
<linearGradient id="paint6_linear_154_2" x1="7.99988" y1="32" x2="39.9999" y2="16" gradientUnits="userSpaceOnUse">
<stop offset="0.6" stop-color="white"/>
<stop offset="1" stop-color="white" stop-opacity="0.32"/>
</linearGradient>
<linearGradient id="paint7_linear_154_2" x1="8" y1="16" x2="40" y2="32" gradientUnits="userSpaceOnUse">
<stop offset="0.2" stop-color="white"/>
<stop offset="0.8" stop-color="#DBDBDB"/>
</linearGradient>
<clipPath id="clip0_154_2">
<rect width="48" height="48" rx="24" fill="white"/>
</clipPath>
</defs>
</svg>
